0
SECTION
2
HEADER
9
$INSUNITS
70
4
9
$ACADVER
1
AC1014
9
$HANDSEED
5
FFFF
0
ENDSEC
0
SECTION
2
TABLES
0
TABLE
2
VPORT
5
8
100
AcDbSymbolTable
0
ENDTAB
0
TABLE
2
LTYPE
5
5
100
AcDbSymbolTable
0
LTYPE
5
14
100
AcDbSymbolTableRecord
100
AcDbLinetypeTableRecord
2
BYBLOCK
70
0
0
LTYPE
5
15
100
AcDbSymbolTableRecord
100
AcDbLinetypeTableRecord
2
BYLAYER
70
0
0
ENDTAB
0
TABLE
2
LAYER
5
2
100
AcDbSymbolTable
70
2
0
LAYER
5
50
100
AcDbSymbolTableRecord
100
AcDbLayerTableRecord
2
0
70
0
6
CONTINUOUS
0
ENDTAB
0
TABLE
2
STYLE
5
3
100
AcDbSymbolTable
70
1
0
STYLE
5
11
100
AcDbSymbolTableRecord
100
AcDbTextStyleTableRecord
2
STANDARD
70
0
0
ENDTAB
0
TABLE
2
VIEW
5
6
100
AcDbSymbolTable
70
0
0
ENDTAB
0
TABLE
2
UCS
5
7
100
AcDbSymbolTable
70
0
0
ENDTAB
0
TABLE
2
APPID
5
9
100
AcDbSymbolTable
70
2
0
APPID
5
12
100
AcDbSymbolTableRecord
100
AcDbRegAppTableRecord
2
ACAD
70
0
0
ENDTAB
0
TABLE
2
DIMSTYLE
5
A
100
AcDbSymbolTable
70
1
0
ENDTAB
0
TABLE
2
BLOCK_RECORD
5
1
100
AcDbSymbolTable
70
1
0
BLOCK_RECORD
5
1F
100
AcDbSymbolTableRecord
100
AcDbBlockTableRecord
2
*MODEL_SPACE
0
BLOCK_RECORD
5
1B
100
AcDbSymbolTableRecord
100
AcDbBlockTableRecord
2
*PAPER_SPACE
0
ENDTAB
0
ENDSEC
0
SECTION
2
BLOCKS
0
BLOCK
5
20
100
AcDbEntity
100
AcDbBlockBegin
2
*MODEL_SPACE
0
ENDBLK
5
21
100
AcDbEntity
100
AcDbBlockEnd
0
BLOCK
5
1C
100
AcDbEntity
100
AcDbBlockBegin
2
*PAPER_SPACE
0
ENDBLK
5
1D
100
AcDbEntity
100
AcDbBlockEnd
0
ENDSEC
0
SECTION
2
ENTITIES
0
CIRCLE
5
100
100
AcDbEntity
8
0
100
AcDbCircle
10
-53.453580237656695
20
169.78584013175117
30
1.1227884575107263e-16
40
10.499999999999998
210
0
220
0
230
1
0
LWPOLYLINE
5
101
100
AcDbEntity
8
0
100
AcDbPolyline
90
8
70
1
43
0.0
10
165.93933982822168
20
117.78584013175185
42
-0.4142135623730846
10
163.93933982822165
20
115.78584013175183
10
9.9393398282204259
20
115.78584013175208
42
-0.41421356237308937
10
7.9393398282204615
20
117.78584013175208
10
7.9393398282198335
20
221.78584013175157
42
-0.41421356237310314
10
9.9393398282198397
20
223.7858401317516
10
163.93933982822097
20
223.78584013175254
42
-0.41421356237309503
10
165.93933982822102
20
221.78584013175256
0
LWPOLYLINE
5
102
100
AcDbEntity
8
0
100
AcDbPolyline
90
4
70
1
43
0.0
10
-21.453580237662475
20
229.78584013171329
10
-21.453580237662294
20
199.78584013171337
42
-0.99999999999999989
10
-25.453580237611803
20
199.78584013171479
10
-25.453580237606364
20
229.78584013171471
42
-0.99999999999999989
0
LWPOLYLINE
5
103
100
AcDbEntity
8
0
100
AcDbPolyline
90
4
70
1
43
0.0
10
195.33225989410224
20
199.78584013171456
10
195.33225989409627
20
229.78584013171584
42
-0.99999999999999989
10
199.33225989405162
20
229.78584013171456
10
199.33225989405162
20
199.78584013171604
42
-0.99999999999999989
0
LWPOLYLINE
5
104
100
AcDbEntity
8
0
100
AcDbPolyline
90
4
70
1
43
0.0
10
-25.453580237641699
20
109.78584013176565
10
-25.453580237665385
20
139.78584013176555
42
-0.99999999999999989
10
-21.453580237677635
20
139.78584013177272
10
-21.453580237637514
20
109.78584013176828
42
-0.99999999999999989
0
LWPOLYLINE
5
105
100
AcDbEntity
8
0
100
AcDbPolyline
90
4
70
1
43
0.0
10
199.33225989410599
20
139.78584013176686
10
199.33225989406779
20
109.78584013176246
42
-0.99999999999999989
10
195.33225989409317
20
109.78584013177397
10
195.33225989411815
20
139.78584013177397
42
-0.99999999999999989
0
LWPOLYLINE
5
106
100
AcDbEntity
8
0
100
AcDbPolyline
90
4
70
1
43
0.0
10
-85.453580237679859
20
199.78584013176371
10
-85.453580237675979
20
229.78584013176632
42
-0.99999999999999989
10
-81.453580237715073
20
229.78584013176442
10
-81.453580237689039
20
199.7858401317649
42
-0.99999999999999989
0
LWPOLYLINE
5
107
100
AcDbEntity
8
0
100
AcDbPolyline
90
4
70
1
43
0.0
10
259.33225989411551
20
229.78584013176828
10
259.33225989411665
20
199.78584013176732
42
-0.99999999999999989
10
255.33225989413199
20
199.78584013176513
10
255.33225989415459
20
229.78584013176629
42
-0.99999999999999989
0
LWPOLYLINE
5
108
100
AcDbEntity
8
0
100
AcDbPolyline
90
4
70
1
43
0.0
10
-85.45358023767777
20
109.78584013176281
10
-85.453580237692606
20
139.78584013176419
42
-0.99999999999999989
10
-81.453580237658443
20
139.78584013176456
10
-81.453580237644147
20
109.78584013176572
42
-0.99999999999999989
0
LWPOLYLINE
5
109
100
AcDbEntity
8
0
100
AcDbPolyline
90
4
70
1
43
0.0
10
259.33225989413313
20
139.78584013176612
10
259.33225989411739
20
109.78584013176587
42
-0.99999999999999989
10
255.33225989408621
20
109.78584013176651
10
255.33225989409902
20
139.78584013176641
42
-0.99999999999999989
0
LWPOLYLINE
5
110
100
AcDbEntity
8
0
100
AcDbPolyline
90
2
70
1
43
0.0
10
88.064339828225101
20
54.124970873443417
10
88.064339828225116
20
50.660869258305681
42
-3.4641016151377637
0
LWPOLYLINE
5
111
100
AcDbEntity
8
0
100
AcDbPolyline
90
2
70
1
43
0.0
10
88.064339828223851
20
288.9108110051979
10
88.064339828223893
20
285.44670939006016
42
-3.4641016151377837
0
CIRCLE
5
112
100
AcDbEntity
8
0
100
AcDbCircle
10
164.93933982822284
20
52.392920065874442
30
-6.8898094328733351e-17
40
7.9999999999999982
210
0
220
0
230
1
0
CIRCLE
5
113
100
AcDbEntity
8
0
100
AcDbCircle
10
164.93933982822159
20
287.17876019762974
30
-6.8898094328733351e-17
40
7.9999999999999982
210
0
220
0
230
1
0
CIRCLE
5
114
100
AcDbEntity
8
0
100
AcDbCircle
10
8.9393398282258829
20
52.39292006587435
30
-1.8777016488955658e-17
40
8.0000000000000036
210
0
220
0
230
1
0
CIRCLE
5
115
100
AcDbEntity
8
0
100
AcDbCircle
10
8.9393398282246395
20
287.17876019762855
30
-1.8777016488955658e-17
40
8.0000000000000036
210
0
220
0
230
1
0
CIRCLE
5
116
100
AcDbEntity
8
0
100
AcDbCircle
10
273.72517995997504
20
219.78584013175254
30
-1.9846182254661117e-17
40
2.9999999999999982
210
0
220
0
230
1
0
CIRCLE
5
117
100
AcDbEntity
8
0
100
AcDbCircle
10
-99.846500303530775
20
119.78584013175089
30
-6.7828928563027891e-17
40
3.0000000000000071
210
0
220
0
230
1
0
CIRCLE
5
118
100
AcDbEntity
8
0
100
AcDbCircle
10
273.72517995997561
20
119.78584013175256
30
-1.9846182254661117e-17
40
2.9999999999999982
210
0
220
0
230
1
0
CIRCLE
5
119
100
AcDbEntity
8
0
100
AcDbCircle
10
86.939339828220014
20
333.5716802635057
30
9.4940322665261096e-17
40
3.0000000000000071
210
0
220
0
230
1
0
CIRCLE
5
120
100
AcDbEntity
8
0
100
AcDbCircle
10
-99.846500303531343
20
219.78584013175089
30
-6.7828928563027891e-17
40
2.9999999999999982
210
0
220
0
230
1
0
CIRCLE
5
121
100
AcDbEntity
8
0
100
AcDbCircle
10
86.939339828221392
20
5.9999999999993747
30
9.4940322665261096e-17
40
3.0000000000000071
210
0
220
0
230
1
0
LWPOLYLINE
5
122
100
AcDbEntity
8
0
100
AcDbPolyline
90
44
70
1
43
0.0
10
279.72517995997566
20
105.84650030353191
10
267.72517995997555
20
93.846500303531627
10
264.33225989409846
20
92.346500303531656
10
190.33225989409843
20
92.346500303531229
10
190.33225989409843
20
92.785840131751414
10
186.93933982822259
20
92.785840131751399
10
186.93933982822259
20
89.392920065874051
10
187.37867965644284
20
89.392920065874051
10
187.37867965644284
20
15.392920065874627
10
185.87867965644224
20
11.99999999999867
10
173.8786796564429
20
-5.8841820305133297e-13
10
-4.2188474935755949e-14
20
-5.9285909514983359e-13
10
-11.999999999999353
20
11.999999999998785
10
-13.499999999999538
20
15.392920065874502
10
-13.499999999999552
20
89.392920065873952
10
-13.060660171779368
20
89.392920065873952
10
-13.060660171779404
20
92.785840131751286
10
-16.453580237656311
20
92.785840131751272
10
-16.453580237656311
20
92.346500303531158
10
-90.453580237656269
20
92.346500303530689
10
-93.846500303530632
20
93.846500303530831
10
-105.84650030353072
20
105.84650030353069
10
-105.84650030353143
20
233.72517995997106
10
-93.84650030353113
20
245.7251799599714
10
-90.453580237657164
20
247.2251799599712
10
-16.453580237657093
20
247.22517995997163
10
-16.453580237657093
20
246.78584013175146
10
-13.060660171780292
20
246.78584013175146
10
-13.060660171780347
20
250.17876019762804
10
-13.500000000000583
20
250.17876019762804
10
-13.500000000000991
20
324.17876019762798
10
-12.000000000001524
20
327.57168026350496
10
-1.5631940186722204e-12
20
339.57168026350519
10
173.87867965644148
20
339.57168026350638
10
185.87867965644159
20
327.57168026350644
10
187.37867965644142
20
324.17876019762929
10
187.37867965644188
20
250.17876019762926
10
186.9393398282217
20
250.17876019762926
10
186.93933982822173
20
246.78584013175271
10
190.33225989409755
20
246.78584013175271
10
190.33225989409755
20
247.22517995997288
10
264.33225989409755
20
247.22517995997336
10
267.72517995997453
20
245.72517995997359
10
279.72517995997498
20
233.72517995997327
0
CIRCLE
5
123
100
AcDbEntity
8
0
100
AcDbCircle
10
43.939339828220824
20
109.78584013175158
30
-9.2294254886492964e-17
40
1.6000000000000014
210
0
220
-0
230
1
0
CIRCLE
5
124
100
AcDbEntity
8
0
100
AcDbCircle
10
123.93933982822078
20
109.78584013175208
30
1.7222099224052283e-17
40
1.6000000000000014
210
0
220
-0
230
1
0
CIRCLE
5
125
100
AcDbEntity
8
0
100
AcDbCircle
10
123.93933982822006
20
229.78584013175208
30
1.7222099224052283e-17
40
1.6000000000000014
210
0
220
-0
230
1
0
CIRCLE
5
126
100
AcDbEntity
8
0
100
AcDbCircle
10
43.939339828220071
20
229.78584013175157
30
-9.2294254886492964e-17
40
1.6000000000000014
210
0
220
-0
230
1
0
LINE
5
127
100
AcDbEntity
8
0
100
AcDbLine
10
186.62867965644151
20
325.87522023056795
30
0
11
-12.750000000001158
21
325.8752202305667
31
-2.4651903288156619e-30
0
LINE
5
128
100
AcDbEntity
8
0
100
AcDbLine
10
186.9393398282217
20
248.48230016469097
30
0
11
-13.060660171780363
21
248.48230016468975
31
0
0
LINE
5
129
100
AcDbEntity
8
0
100
AcDbLine
10
-14.75712020471871
20
246.78584013175146
30
0
11
-14.757120204717928
21
92.785840131751272
31
2.2264795826793723e-32
0
LINE
5
130
100
AcDbEntity
8
0
100
AcDbLine
10
-92.150040270593337
20
246.47517995997168
30
0
11
-92.150040270592541
21
93.096500303530291
31
3.3041358692875146e-31
0
LINE
5
131
100
AcDbEntity
8
0
100
AcDbLine
10
-13.060660171779404
20
91.08938009881274
30
0
11
186.93933982822259
21
91.089380098813066
31
-2.4651903288156619e-31
0
LINE
5
132
100
AcDbEntity
8
0
100
AcDbLine
10
-12.749999999999631
20
13.696460032937043
30
8.0779356694631609e-27
11
186.62867965644273
21
13.696460032937132
31
8.0770728528480754e-27
0
LINE
5
133
100
AcDbEntity
8
0
100
AcDbLine
10
188.63579986116054
20
92.785840131751414
30
0
11
188.63579986115965
21
246.78584013175271
31
-1.0654013109369076e-31
0
LINE
5
134
100
AcDbEntity
8
0
100
AcDbLine
10
266.02871992703712
20
93.09650030353167
30
0
11
266.02871992703626
21
246.47517995997336
31
1.7909876466804853e-30
0
ENDSEC
0
SECTION
2
OBJECTS
0
DICTIONARY
5
C
100
AcDbDictionary
3
ACAD_GROUP
350
D
3
ACAD_MLINESTYLE
350
17
0
DICTIONARY
5
D
100
AcDbDictionary
0
DICTIONARY
5
1A
330
C
100
AcDbDictionary
0
DICTIONARY
5
17
100
AcDbDictionary
0
ENDSEC
0
EOF
