0
SECTION
2
HEADER
9
$INSUNITS
70
4
9
$ACADVER
1
AC1014
9
$HANDSEED
5
FFFF
0
ENDSEC
0
SECTION
2
TABLES
0
TABLE
2
VPORT
5
8
100
AcDbSymbolTable
0
ENDTAB
0
TABLE
2
LTYPE
5
5
100
AcDbSymbolTable
0
LTYPE
5
14
100
AcDbSymbolTableRecord
100
AcDbLinetypeTableRecord
2
BYBLOCK
70
0
0
LTYPE
5
15
100
AcDbSymbolTableRecord
100
AcDbLinetypeTableRecord
2
BYLAYER
70
0
0
ENDTAB
0
TABLE
2
LAYER
5
2
100
AcDbSymbolTable
70
2
0
LAYER
5
50
100
AcDbSymbolTableRecord
100
AcDbLayerTableRecord
2
0
70
0
6
CONTINUOUS
0
ENDTAB
0
TABLE
2
STYLE
5
3
100
AcDbSymbolTable
70
1
0
STYLE
5
11
100
AcDbSymbolTableRecord
100
AcDbTextStyleTableRecord
2
STANDARD
70
0
0
ENDTAB
0
TABLE
2
VIEW
5
6
100
AcDbSymbolTable
70
0
0
ENDTAB
0
TABLE
2
UCS
5
7
100
AcDbSymbolTable
70
0
0
ENDTAB
0
TABLE
2
APPID
5
9
100
AcDbSymbolTable
70
2
0
APPID
5
12
100
AcDbSymbolTableRecord
100
AcDbRegAppTableRecord
2
ACAD
70
0
0
ENDTAB
0
TABLE
2
DIMSTYLE
5
A
100
AcDbSymbolTable
70
1
0
ENDTAB
0
TABLE
2
BLOCK_RECORD
5
1
100
AcDbSymbolTable
70
1
0
BLOCK_RECORD
5
1F
100
AcDbSymbolTableRecord
100
AcDbBlockTableRecord
2
*MODEL_SPACE
0
BLOCK_RECORD
5
1B
100
AcDbSymbolTableRecord
100
AcDbBlockTableRecord
2
*PAPER_SPACE
0
ENDTAB
0
ENDSEC
0
SECTION
2
BLOCKS
0
BLOCK
5
20
100
AcDbEntity
100
AcDbBlockBegin
2
*MODEL_SPACE
0
ENDBLK
5
21
100
AcDbEntity
100
AcDbBlockEnd
0
BLOCK
5
1C
100
AcDbEntity
100
AcDbBlockBegin
2
*PAPER_SPACE
0
ENDBLK
5
1D
100
AcDbEntity
100
AcDbBlockEnd
0
ENDSEC
0
SECTION
2
ENTITIES
0
CIRCLE
5
100
100
AcDbEntity
8
0
100
AcDbCircle
10
70.999999999999147
20
41.999999999999417
30
0
40
2.5
210
0
220
0
230
1
0
CIRCLE
5
101
100
AcDbEntity
8
0
100
AcDbCircle
10
-49.999999999999901
20
135.99999999999011
30
0
40
2.4999999999999911
210
0
220
0
230
1
0
CIRCLE
5
102
100
AcDbEntity
8
0
100
AcDbCircle
10
49.999999999999609
20
-52.000000000002004
30
0
40
2.5
210
0
220
0
230
1
0
CIRCLE
5
103
100
AcDbEntity
8
0
100
AcDbCircle
10
-71.000000000038057
20
41.999999999999631
30
0
40
2.5
210
0
220
0
230
1
0
CIRCLE
5
104
100
AcDbEntity
8
0
100
AcDbCircle
10
50.000000000000085
20
135.99999999998997
30
0
40
2.5
210
0
220
0
230
1
0
CIRCLE
5
105
100
AcDbEntity
8
0
100
AcDbCircle
10
-50.000000000000391
20
-52.000000000001961
30
0
40
2.5
210
0
220
0
230
1
0
LWPOLYLINE
5
106
100
AcDbEntity
8
0
100
AcDbPolyline
90
8
70
1
43
0.0
10
-90.99999999999973
20
-5.9999999999997575
10
-88.999999999999702
20
-5.9999999999997673
42
-0.41421356237309598
10
-86.999999999999716
20
-7.9999999999997673
10
-86.999999999999716
20
-43.999999999999787
42
-0.41421356237310281
10
-88.999999999999687
20
-45.999999999999787
10
-90.99999999999973
20
-45.999999999999766
42
-0.41421356237309115
10
-92.999999999999716
20
-43.999999999999801
10
-92.999999999999716
20
-7.9999999999997602
42
-0.41421356237309553
0
LWPOLYLINE
5
107
100
AcDbEntity
8
0
100
AcDbPolyline
90
8
70
1
43
0.0
10
92.999999999998408
20
-8.0000000000002114
10
92.999999999998437
20
-44.000000000000206
42
-0.4142135623730937
10
90.999999999998408
20
-46.00000000000022
10
88.999999999998423
20
-46.000000000000199
42
-0.41421356237309631
10
86.999999999998451
20
-44.000000000000213
10
86.999999999998408
20
-8.0000000000002132
42
-0.4142135623730957
10
88.999999999998408
20
-6.0000000000002096
10
90.999999999998408
20
-6.0000000000002114
42
-0.41421356237309598
0
LWPOLYLINE
5
108
100
AcDbEntity
8
0
100
AcDbPolyline
90
8
70
1
43
0.0
10
-19.999999999999254
20
154.00000000000023
10
-19.999999999999254
20
156.00000000000023
42
-0.41421356237309631
10
-17.999999999999254
20
158.00000000000023
10
18.000000000000743
20
158.00000000000023
42
-0.4142135623730957
10
20.000000000000746
20
156.00000000000023
10
20.000000000000746
20
154.00000000000023
42
-0.41421356237309631
10
18.000000000000746
20
152.00000000000023
10
-17.99999999999925
20
152.00000000000023
42
-0.4142135623730957
0
LWPOLYLINE
5
109
100
AcDbEntity
8
0
100
AcDbPolyline
90
20
70
1
43
0.0
10
-90.000000000000057
20
-60.999999999999204
10
89.999999999998167
20
-61.000000000000163
42
0.41421356237309476
10
99.999999999998209
20
-51.000000000000227
10
99.999999999998508
20
-1.00000000000023
42
0.41421356237309825
10
89.999999999998465
20
8.9999999999998614
42
-0.4142135623730927
10
79.99999999999855
20
18.999999999999844
10
79.99999999999855
20
143.00000000000023
42
0.41421356237309764
10
77.999999999998565
20
145.00000000000023
10
45.000000000000746
20
145.00000000000026
42
-0.4142135623730932
10
35.000000000000746
20
155.00000000000023
42
0.41421356237309709
10
25.000000000000746
20
165.00000000000028
10
-24.999999999999254
20
165.00000000000031
42
0.41421356237309659
10
-34.999999999999247
20
155.00000000000026
42
-0.41421356237309531
10
-44.999999999999254
20
145.00000000000026
10
-77.999999999999375
20
145.00000000000026
42
0.41421356237309503
10
-79.999999999999375
20
143.00000000000026
10
-79.999999999999346
20
19.000000000000238
42
-0.41421356237309503
10
-89.999999999999361
20
9.0000000000002256
42
0.41421356237309531
10
-99.999999999999488
20
-0.9999999999996767
10
-99.999999999999943
20
-50.999999999999794
42
0.41421356237309503
0
ENDSEC
0
SECTION
2
OBJECTS
0
DICTIONARY
5
C
100
AcDbDictionary
3
ACAD_GROUP
350
D
3
ACAD_MLINESTYLE
350
17
0
DICTIONARY
5
D
100
AcDbDictionary
0
DICTIONARY
5
1A
330
C
100
AcDbDictionary
0
DICTIONARY
5
17
100
AcDbDictionary
0
ENDSEC
0
EOF
